<?xml version="1.0" encoding="utf-8"?>
<?xml-stylesheet type="text/xsl" href="rss1.xsl"?>
<rss version="2.0" xmlns:atom="http://www.w3.org/2005/Atom" xmlns:content="http://purl.org/rss/1.0/modules/content/" xmlns:dc="http://purl.org/dc/elements/1.1/" xmlns:media="http://search.yahoo.com/mrss/">
<channel>
 <title>Getty</title>
 <link>http://www.gettyimg.com/</link>
 <atom:link href="http://www.gettyimg.com/" rel="self" type="application/rss+xml" />

 
                <item>
                <title><![CDATA[【HD Live Performances】FEED - Linkin Park - Castle of Glass - Video Game Awards S01E10 2012 1080i HDTV Backhaul MPA2.0 MPEG2-TrollHD]]></title>
                <link><![CDATA[https://sharemania.us/threads/linkin-park-castle-of-glass-video-game-awards-s01e10-2012-1080i-hdtv-backhaul-mpa2-0-mpeg2-trollhd.225536/]]></link>
                <description><![CDATA[<article>
<blockquote class="messageText SelectQuoteContainer ugc baseHtml">
<div style="padding-left: 30px"><div style="padding-left: 30px"><div style="padding-left: 30px"><div style="padding-left: 30px"><div style="padding-left: 30px"><div style="padding-left: 30px"><div style="padding-left: 30px"><div style="padding-left: 30px"><b><span style="color: rgb(255, 0, 0)">Linkin Park - Castle of Glass - </span></b>​</div></div></div></div></div></div><b><span style="color: rgb(255, 0, 0)">Video Game Awards S01E10 2012 1080i HDTV Backhaul MPA2.0 MPEG2-TrollHD</span></b>​</div></div><br>
<img src="https://images2.imgbox.com/5d/60/q18652U5_o.jpg" class="bbCodeImage LbImage" alt="[​IMG]" data-url="https://images2.imgbox.com/5d/60/q18652U5_o.jpg" style=""><br>
<br>
<div class="bbCodeBlock bbCodeCode">
<div class="type">Code:</div>
<pre>General
Unique ID                      : 73353016912010937864557110614098508800 (0x372F46F52681CE5DF4AB85F87110FC00)
Format                         : Matroska
Format version                 : Version 4
File size                      : 1.05 GiB
Duration                       : 3 min 52 s
Overall bit rate mode          : Variable
Overall bit rate               : 38.9 Mb/s
Encoded date                   : UTC 2023-07-31 18:54:10
Writing application            : mkvmerge v30.0.0 ('Interstellar') 64-bit
Writing library                : libebml v1.3.6 + libmatroska v1.4.9

Video
ID                             : 1
Format                         : MPEG Video
Format version                 : Version 2
Format profile                 : 4:2:2@High
Format settings                : BVOP
Format settings, BVOP          : Yes
Format settings, Matrix        : Default
Format settings, GOP           : M=4, N=12
Format settings, picture struc : Frame
Codec ID                       : V_MPEG2
Codec ID/Info                  : MPEG 1 or 2 Video
Duration                       : 3 min 51 s
Bit rate mode                  : Variable
Bit rate                       : 38.5 Mb/s
Maximum bit rate               : 39.4 Mb/s
Width                          : 1 920 pixels
Height                         : 1 080 pixels
Display aspect ratio           : 16:9
Frame rate mode                : Constant
Frame rate                     : 29.970 (30000/1001) FPS
Color space                    : YUV
Chroma subsampling             : 4:2:2
Bit depth                      : 8 bits
Scan type                      : Interlaced
Scan order                     : Top Field First
Compression mode               : Lossy
Bits/(Pixel*Frame)             : 0.619
Time code of first frame       : 00:36:11;01
Time code source               : Group of pictures header
GOP, Open/Closed               : Open
Stream size                    : 1.04 GiB (99%)
Language                       : English
Default                        : Yes
Forced                         : No

Audio
ID                             : 2
Format                         : MPEG Audio
Format version                 : Version 1
Format profile                 : Layer 2
Codec ID                       : A_MPEG/L2
Codec ID/Hint                  : MP2
Duration                       : 3 min 51 s
Bit rate mode                  : Constant
Bit rate                       : 384 kb/s
Channel(s)                     : 2 channels
Sampling rate                  : 48.0 kHz
Frame rate                     : 41.667 FPS (1152 SPF)
Compression mode               : Lossy
Delay relative to video        : 117 ms
Stream size                    : 10.6 MiB (1%)
Language                       : English
Default                        : Yes
Forced                         : No

</pre>
</div>
<div class="bbCodeBlock bbCodeVfcHH HiddenContent">
<div class="attribution type">Hidden Content:</div>
<blockquote>You must either reply or click 'Like' to see the hidden information contained here.</blockquote>
</div><span style="color: rgb(191, 191, 191)">Cutted with:</span><br>
<b>MKVToolNix GUI<br>
<br>
<img src="styles/default/xenforo/smilies/super_man-48.png" class="mceSmilie" alt=":super:" title="Super Man    :super:"><img src="styles/default/xenforo/smilies/super_man-48.png" class="mceSmilie" alt=":super:" title="Super Man    :super:"><img src="styles/default/xenforo/smilies/super_man-48.png" class="mceSmilie" alt=":super:" title="Super Man    :super:"></b>
<div class="messageTextEndMarker">&nbsp;</div>
</blockquote>
</article>]]></description>
                <author><![CDATA[Dream66]]></author>
                </item>

                
                <item>
                <title><![CDATA[【Requests】[REQ AUD] - ITZY - KILL MY DOUBT - EP (Dolby Atmos)]]></title>
                <link><![CDATA[https://sharemania.us/threads/itzy-kill-my-doubt-ep-dolby-atmos.225537/]]></link>
                <description><![CDATA[<article>
<blockquote class="messageText SelectQuoteContainer ugc baseHtml">
Hiii, please someone can share the dolby atmos version of this album, it its available on tidal ;)<br>
<br>
<a href="https://tidal.com/browse/album/307637202" target="_blank" class="externalLink" rel="nofollow">https://tidal.com/browse/album/307637202</a>
<div class="messageTextEndMarker">&nbsp;</div>
</blockquote>
</article>]]></description>
                <author><![CDATA[alwtson]]></author>
                </item>

                
                <item>
                <title><![CDATA[【Requests】[REQ AUD] - Blake Lewis - ADD (Audio Day Dream)]]></title>
                <link><![CDATA[https://sharemania.us/threads/blake-lewis-add-audio-day-dream.225538/]]></link>
                <description><![CDATA[<article>
<blockquote class="messageText SelectQuoteContainer ugc baseHtml">
Any format is ok, but I would prefer to have the iTunes exclusive track "Human" with it as well, if possible! Thank you!
<div class="messageTextEndMarker">&nbsp;</div>
</blockquote>
</article>]]></description>
                <author><![CDATA[jojojava]]></author>
                </item>

                </channel></rss>